<svg width="32" height="32" viewBox="0 0 32 32" fill="none" xmlns="http://www.w3.org/2000/svg">
<circle cx="16" cy="16" r="16" fill="white"/>
<path fill-rule="evenodd" clip-rule="evenodd" d="M12.0333 6.51821C10.4705 6.58872 9.11601 6.9708 8.02227 8.05992C6.9247 9.15477 6.54737 10.5147 6.47669 12.0612C6.43274 13.0264 6.1758 20.3187 6.92088 22.2311C7.42334 23.5213 8.41293 24.5133 9.71492 25.0174C10.3224 25.2537 11.016 25.4136 12.0333 25.4603C20.5396 25.8453 23.6929 25.6357 25.0225 22.2311C25.2585 21.6251 25.4209 20.9322 25.4658 19.9174C25.8545 11.3892 25.4027 9.54068 23.9202 8.05992C22.7443 6.88694 21.3611 6.08847 12.0333 6.51821ZM12.1116 23.7452C11.1802 23.7032 10.6749 23.5481 10.3377 23.4175C9.48949 23.0878 8.85235 22.4533 8.52471 21.61C7.9573 20.1569 8.14549 13.2553 8.19611 12.1385C8.24578 11.0446 8.4674 10.0449 9.23922 9.27304C10.1945 8.32017 11.4286 7.85318 19.8318 8.23242C20.9284 8.28197 21.9305 8.50313 22.7042 9.27304C23.6594 10.2259 24.1332 11.4696 23.7473 19.8405C23.7053 20.7696 23.5496 21.2737 23.4187 21.61C22.5542 23.8254 20.5654 24.133 12.1116 23.7452ZM19.9245 10.9024C19.9245 11.5332 20.4374 12.0462 21.0708 12.0462C21.7041 12.0462 22.218 11.5332 22.218 10.9024C22.218 10.2716 21.7041 9.75914 21.0708 9.75914C20.4374 9.75914 19.9245 10.2716 19.9245 10.9024ZM11.0666 15.9888C11.0666 18.6911 13.2627 20.8821 15.9717 20.8821C18.6808 20.8821 20.8768 18.6911 20.8768 15.9888C20.8768 13.2865 18.6808 11.0969 15.9717 11.0969C13.2627 11.0969 11.0666 13.2865 11.0666 15.9888ZM12.7879 15.9888C12.7879 14.2355 14.2131 12.813 15.9717 12.813C17.7303 12.813 19.1555 14.2355 19.1555 15.9888C19.1555 17.743 17.7303 19.166 15.9717 19.166C14.2131 19.166 12.7879 17.743 12.7879 15.9888Z" fill="#21254F"/>
</svg>
