<svg width="32" height="32" viewBox="0 0 32 32" fill="none" xmlns="http://www.w3.org/2000/svg">
<circle cx="16" cy="16" r="16" fill="white"/>
<path fill-rule="evenodd" clip-rule="evenodd" d="M12.2898 24C19.8369 24 23.965 17.8435 23.965 12.5052C23.965 12.33 23.965 12.156 23.953 11.9828C24.756 11.4117 25.449 10.7027 26 9.89142C25.252 10.2183 24.457 10.4327 23.644 10.5272C24.5 10.0221 25.141 9.22859 25.448 8.29228C24.642 8.7629 23.761 9.09504 22.842 9.27325C21.288 7.64676 18.6889 7.56795 17.0359 9.09795C15.9709 10.0845 15.5179 11.5554 15.8489 12.9584C12.5498 12.7949 9.4758 11.261 7.39177 8.7376C6.30276 10.5836 6.85977 12.9444 8.66279 14.1298C8.00978 14.111 7.37077 13.938 6.79977 13.6249V13.6761C6.80077 15.599 8.17778 17.2546 10.0918 17.6357C9.4878 17.7981 8.85379 17.8217 8.23978 17.7045C8.77679 19.3507 10.3178 20.4782 12.0728 20.5107C10.6198 21.6351 8.82479 22.2456 6.97677 22.2436C6.65076 22.2426 6.32476 22.2239 5.99976 22.1855C7.87678 23.3709 10.0598 24 12.2898 23.9971" fill="#21254F"/>
</svg>
