<svg width="32" height="32" viewBox="0 0 32 32" fill="none" xmlns="http://www.w3.org/2000/svg">
<circle cx="16" cy="16" r="16" fill="white"/>
<path d="M16 8.80078C16.5811 8.80078 21.7192 8.81158 23.1865 9.20508C23.7304 9.35147 24.2267 9.63786 24.625 10.0361C25.0233 10.4345 25.3097 10.9316 25.4561 11.4756C25.8551 12.9666 25.8603 15.8729 25.8604 16C25.8604 16.1231 25.8554 19.0332 25.4561 20.5254C25.3097 21.0696 25.0225 21.5664 24.624 21.9648C24.2256 22.3631 23.7296 22.6497 23.1855 22.7959C21.7192 23.1894 16.5811 23.2012 16 23.2012C15.4175 23.2012 10.281 23.1893 8.81445 22.7959C8.27047 22.6498 7.77426 22.3631 7.37598 21.9648C6.97776 21.5665 6.69096 21.0703 6.54492 20.5264C6.14457 19.0342 6.14062 16.124 6.14062 16.001C6.14063 15.8736 6.14529 12.9665 6.54492 11.4756C6.69144 10.9316 6.97861 10.4355 7.37695 10.0371C7.77531 9.63884 8.2715 9.35252 8.81543 9.20605C10.2816 8.81266 15.4175 8.80079 16 8.80078ZM14.457 13.0352C14.3699 13.035 14.2844 13.0581 14.209 13.1016C14.1336 13.1451 14.0708 13.2078 14.0273 13.2832C13.9839 13.3588 13.9606 13.445 13.9609 13.5322V18.4707C13.9609 18.6022 14.0135 18.7282 14.1064 18.8213C14.1995 18.9143 14.3255 18.9668 14.457 18.9668C14.544 18.9667 14.6296 18.9444 14.7051 18.9014L18.9824 16.4316C19.0578 16.3881 19.1205 16.3254 19.1641 16.25C19.2076 16.1746 19.2304 16.089 19.2305 16.002C19.2305 15.915 19.2075 15.8292 19.1641 15.7539C19.1206 15.6786 19.0577 15.6158 18.9824 15.5723L14.7051 13.1025C14.6297 13.0587 14.5442 13.0353 14.457 13.0352Z" fill="#21254F"/>
</svg>
